<svg width="30" height="30" viewBox="0 0 30 30" fill="none" xmlns="http://www.w3.org/2000/svg">
<path fill-rule="evenodd" clip-rule="evenodd" d="M4 14.75C4 8.81294 8.81294 4 14.75 4C15.1642 4 15.5 4.33579 15.5 4.75C15.5 5.16421 15.1642 5.5 14.75 5.5C9.64137 5.5 5.5 9.64137 5.5 14.75C5.5 19.8586 9.64137 24 14.75 24C19.8586 24 24 19.8586 24 14.75C24 14.3358 24.3358 14 24.75 14C25.1642 14 25.5 14.3358 25.5 14.75C25.5 20.6871 20.6871 25.5 14.75 25.5C8.81294 25.5 4 20.6871 4 14.75ZM19.5205 5.02591C20.8884 3.65803 23.1062 3.65803 24.4741 5.02591C25.842 6.3938 25.842 8.61158 24.4741 9.97947L17.826 16.6276C17.4547 16.9989 17.2221 17.2315 16.9626 17.434C16.6569 17.6724 16.3261 17.8768 15.9761 18.0436C15.679 18.1852 15.3669 18.2892 14.8688 18.4552L11.9643 19.4234C11.428 19.6021 10.8368 19.4626 10.4371 19.0629C10.0374 18.6632 9.89785 18.072 10.0766 17.5357L11.0448 14.6312C11.2108 14.1331 11.3148 13.821 11.4564 13.5239C11.6232 13.1739 11.8276 12.8431 12.066 12.5374C12.2685 12.2779 12.5011 12.0453 12.8724 11.674L19.5205 5.02591ZM23.4134 6.08657C22.6313 5.30448 21.3633 5.30448 20.5812 6.08657L20.2046 6.4632C20.2273 6.55906 20.259 6.67327 20.3032 6.80066C20.4465 7.21372 20.7177 7.75771 21.23 8.26999C21.7423 8.78227 22.2863 9.05346 22.6993 9.19677C22.8267 9.24097 22.9409 9.27273 23.0368 9.29543L23.4134 8.91881C24.1955 8.13671 24.1955 6.86867 23.4134 6.08657ZM21.8551 10.4771C21.3392 10.2552 20.7382 9.89946 20.1693 9.33065C19.6005 8.76185 19.2448 8.16082 19.0229 7.64486L13.9675 12.7003C13.551 13.1168 13.3876 13.282 13.2488 13.4599C13.0774 13.6797 12.9304 13.9176 12.8105 14.1692C12.7134 14.373 12.6387 14.5929 12.4524 15.1517L12.0205 16.4474L13.0526 17.4795L14.3483 17.0476C14.9071 16.8613 15.127 16.7866 15.3308 16.6895C15.5824 16.5696 15.8203 16.4226 16.0401 16.2512C16.218 16.1124 16.3832 15.949 16.7997 15.5325L21.8551 10.4771Z" fill="white"/>
</svg>
