<svg width="30" height="30" viewBox="0 0 30 30" fill="none" xmlns="http://www.w3.org/2000/svg">
<path fill-rule="evenodd" clip-rule="evenodd" d="M17.5066 5.37145C19.3352 3.54285 22.3 3.54285 24.1286 5.37145C25.9572 7.20005 25.9572 10.1648 24.1286 11.9934L14.6433 21.4787C14.1014 22.0206 13.7823 22.3397 13.4274 22.6165C13.0092 22.9427 12.5566 23.2225 12.0777 23.4507C11.6714 23.6443 11.2433 23.787 10.5162 24.0293L7.18511 25.1397L6.38303 25.4071C5.73247 25.6239 5.01522 25.4546 4.53032 24.9697C4.04542 24.4848 3.8761 23.7675 4.09296 23.117L5.47068 18.9838C5.71303 18.2567 5.85568 17.8287 6.04932 17.4224C6.27755 16.9435 6.55727 16.4909 6.88354 16.0726C7.16035 15.7177 7.47939 15.3987 8.02137 14.8567L17.5066 5.37145ZM7.15051 23.5701L9.99203 22.6229C10.7831 22.3592 11.1193 22.2458 11.4323 22.0966C11.8129 21.9153 12.1725 21.693 12.5049 21.4337C12.7784 21.2204 13.0301 20.9705 13.6198 20.3808L21.1893 12.8114C20.4006 12.5332 19.3846 12.0176 18.4335 11.0665C17.4824 10.1154 16.9668 9.09939 16.6887 8.31075L9.11917 15.8802C8.52951 16.4699 8.27959 16.7216 8.0663 16.9951C7.80704 17.3275 7.58476 17.6871 7.40341 18.0677C7.25421 18.3807 7.1408 18.7169 6.87709 19.508L5.92992 22.3495L7.15051 23.5701ZM17.9054 7.09404C17.9396 7.269 17.9974 7.50684 18.0938 7.78487C18.311 8.41083 18.7212 9.23288 19.4942 10.0058C20.2671 10.7788 21.0892 11.189 21.7151 11.4062C21.9932 11.5027 22.231 11.5605 22.406 11.5947L23.0679 10.9327C24.3107 9.68991 24.3107 7.67492 23.0679 6.43211C21.8251 5.1893 19.8101 5.1893 18.5673 6.43211L17.9054 7.09404Z" fill="#1C274C"/>
</svg>
