<svg width="30" height="30" viewBox="0 0 30 30" fill="none" xmlns="http://www.w3.org/2000/svg">
<path fill-rule="evenodd" clip-rule="evenodd" d="M8 17.2501C8 16.8358 8.33579 16.5001 8.75 16.5001H16.75C17.1642 16.5001 17.5 16.8358 17.5 17.2501C17.5 17.6643 17.1642 18.0001 16.75 18.0001H8.75C8.33579 18.0001 8 17.6643 8 17.2501Z" fill="white"/>
<path fill-rule="evenodd" clip-rule="evenodd" d="M8 20.75C8 20.3358 8.33579 20 8.75 20H14.25C14.6642 20 15 20.3358 15 20.75C15 21.1643 14.6642 21.5 14.25 21.5H8.75C8.33579 21.5 8 21.1643 8 20.75Z" fill="white"/>
<path fill-rule="evenodd" clip-rule="evenodd" d="M15 5.58422C14.5396 5.50598 13.912 5.50005 12.7798 5.50005C10.8631 5.50005 9.50075 5.50163 8.46785 5.63987C7.45596 5.7753 6.87453 6.02933 6.4519 6.45195C6.02869 6.87516 5.77502 7.45481 5.63976 8.4609C5.50159 9.48856 5.5 10.8432 5.5 12.7501V16.7501C5.5 18.6569 5.50159 20.0115 5.63976 21.0392C5.77502 22.0453 6.02869 22.6249 6.4519 23.0481C6.87511 23.4714 7.45476 23.725 8.46085 23.8603C9.48851 23.9985 10.8432 24.0001 12.75 24.0001H16.75C18.6568 24.0001 20.0115 23.9985 21.0392 23.8603C22.0452 23.725 22.6249 23.4714 23.0481 23.0481C23.4713 22.6249 23.725 22.0453 23.8602 21.0392C23.9984 20.0115 24 18.6569 24 16.7501V16.3129C24 14.7769 23.9892 14.0488 23.8262 13.5001H20.6963C19.5635 13.5001 18.6377 13.5001 17.9069 13.4018C17.1429 13.2991 16.4806 13.0768 15.9519 12.5481C15.4232 12.0195 15.2009 11.3571 15.0982 10.5932C15 9.8623 15 8.93657 15 7.80374V5.58422ZM16.5 6.3595V7.75005C16.5 8.94976 16.5016 9.7741 16.5848 10.3933C16.6652 10.9909 16.809 11.2839 17.0126 11.4875C17.2161 11.691 17.5091 11.8349 18.1068 11.9152C18.726 11.9985 19.5503 12.0001 20.75 12.0001H22.7695C22.473 11.7125 22.0932 11.368 21.6 10.9241L17.6412 7.36117C17.1558 6.92433 16.7946 6.60187 16.5 6.3595ZM12.9255 4.00002C14.3101 3.99965 15.2046 3.99942 16.0279 4.31535C16.8512 4.63129 17.5132 5.22735 18.5373 6.14955C18.5726 6.18139 18.6084 6.21361 18.6447 6.24623L22.6034 9.80912C22.6456 9.84705 22.6872 9.8845 22.7283 9.92149C23.912 10.9861 24.6774 11.6746 25.0891 12.599C25.5008 13.5234 25.5005 14.5529 25.5 16.1449C25.5 16.2002 25.5 16.2562 25.5 16.3129V16.8065C25.5 18.6442 25.5 20.0999 25.3469 21.2391C25.1892 22.4115 24.8571 23.3604 24.1088 24.1088C23.3604 24.8572 22.4114 25.1893 21.239 25.3469C20.0998 25.5001 18.6442 25.5001 16.8064 25.5001H12.6936C10.8558 25.5001 9.40019 25.5001 8.26098 25.3469C7.08856 25.1893 6.13961 24.8572 5.39124 24.1088C4.64288 23.3604 4.31076 22.4115 4.15314 21.2391C3.99997 20.0999 3.99998 18.6442 4 16.8065V12.6936C3.99998 10.8559 3.99997 9.40024 4.15314 8.26103C4.31076 7.08861 4.64288 6.13966 5.39124 5.39129C6.14019 4.64235 7.09232 4.31059 8.26887 4.15313C9.41283 4.00002 10.8757 4.00003 12.7235 4.00005L12.7798 4.00005C12.8289 4.00005 12.8775 4.00004 12.9255 4.00002Z" fill="white"/>
</svg>
