<svg width="30" height="30" viewBox="0 0 30 30" fill="none" xmlns="http://www.w3.org/2000/svg">
<path fill-rule="evenodd" clip-rule="evenodd" d="M13.9943 4.70482C15.6942 3.76506 17.7846 3.76506 19.4845 4.70482C20.1142 5.05291 20.7019 5.61575 21.6566 6.53015C21.6874 6.55965 21.7186 6.58952 21.7502 6.61977C21.7832 6.65137 21.8157 6.68255 21.8479 6.71334C22.7989 7.62363 23.3881 8.18761 23.7539 8.79433C24.7487 10.444 24.7487 12.4812 23.7539 14.1309C23.3881 14.7377 22.7989 15.3017 21.8479 16.2119C21.8157 16.2427 21.7832 16.2739 21.7502 16.3055L14.2932 23.4455C13.7639 23.9523 13.3326 24.3653 12.9531 24.6715C12.56 24.9885 12.1729 25.2331 11.7185 25.3637C11.0865 25.5454 10.4134 25.5454 9.78145 25.3637C9.32706 25.2331 8.93997 24.9885 8.54685 24.6715C8.16736 24.3654 7.73604 23.9524 7.2068 23.4456L7.15896 23.3998C6.63006 22.8934 6.19862 22.4803 5.87862 22.1166C5.54815 21.741 5.28687 21.3644 5.1462 20.9159C4.95127 20.2943 4.95127 19.6308 5.1462 19.0092C5.28687 18.5607 5.54815 18.1841 5.87862 17.8085C6.19862 17.4448 6.63007 17.0317 7.15896 16.5253L14.5094 9.4872C14.5358 9.462 14.5618 9.43704 14.5875 9.41235C14.9569 9.05782 15.2688 8.75843 15.6293 8.5922C16.2641 8.29951 17.0008 8.29951 17.6356 8.5922C17.9961 8.75843 18.308 9.05782 18.6774 9.41235C18.7031 9.43704 18.7291 9.462 18.7555 9.4872C18.7827 9.51328 18.8097 9.53906 18.8364 9.56458C19.2034 9.91504 19.519 10.2164 19.696 10.5683C20.0123 11.1972 20.0123 11.9329 19.696 12.5618C19.592 12.7685 19.4535 12.94 19.305 13.0998C19.1632 13.2525 18.9817 13.4263 18.7705 13.6285L11.3756 20.7091C11.0764 20.9955 10.6017 20.9852 10.3152 20.686C10.0287 20.3869 10.039 19.9121 10.3382 19.6256L17.7181 12.5595C17.9485 12.3388 18.0977 12.1955 18.2059 12.079C18.3107 11.9662 18.3428 11.9139 18.3559 11.8879C18.459 11.6829 18.459 11.4472 18.3559 11.2422C18.3116 11.1541 18.2129 11.0445 17.7181 10.5706C17.2261 10.0996 17.1081 10.0008 17.0075 9.95436C16.7713 9.84546 16.4936 9.84546 16.2574 9.95436C16.1568 10.0008 16.0387 10.0996 15.5468 10.5706L8.22047 17.5856C7.66163 18.1207 7.27727 18.4896 7.0048 18.7993C6.73794 19.1026 6.62862 19.2949 6.57747 19.4581C6.47418 19.7874 6.47418 20.1377 6.57747 20.467C6.62862 20.6301 6.73794 20.8224 7.0048 21.1258C7.27727 21.4355 7.66163 21.8044 8.22047 22.3395C8.77912 22.8744 9.16466 23.2426 9.48859 23.5039C9.80455 23.7588 10.0115 23.8691 10.1959 23.9221C10.5571 24.026 10.9429 24.026 11.304 23.9221C11.4884 23.8691 11.6954 23.7588 12.0114 23.5039C12.3353 23.2426 12.7208 22.8744 13.2795 22.3395L20.7128 15.2221C21.7929 14.1879 22.2203 13.7694 22.4694 13.3564C23.1769 12.1831 23.1769 10.7422 22.4694 9.56888C22.2203 9.15585 21.7929 8.73742 20.7128 7.7032C19.6344 6.67069 19.1953 6.25886 18.7588 6.01758C17.5105 5.32747 15.9683 5.32747 14.72 6.01758C14.2835 6.25886 13.8444 6.67069 12.766 7.7032L6.77659 13.4381C6.47741 13.7245 6.00265 13.7142 5.71618 13.415C5.42971 13.1159 5.44002 12.6411 5.7392 12.3546L11.7286 6.61977C11.7602 6.58952 11.7914 6.55965 11.8222 6.53014C12.7769 5.61575 13.3646 5.05291 13.9943 4.70482Z" fill="white"/>
</svg>
