<svg width="30" height="30" viewBox="0 0 30 30" fill="none" xmlns="http://www.w3.org/2000/svg">
<path d="M23.0001 9H6" stroke="#1C274C" stroke-width="1.5" stroke-linecap="round"/>
<path d="M21.3332 11.5L20.8732 18.3991C20.6962 21.054 20.6077 22.3815 19.7427 23.1907C18.8777 24 17.5473 24 14.8865 24H14.1132C11.4524 24 10.122 24 9.25694 23.1907C8.39194 22.3815 8.30344 21.054 8.12644 18.3991L7.6665 11.5" stroke="#1C274C" stroke-width="1.5" stroke-linecap="round"/>
<path d="M9 9C9.05588 9 9.08382 9 9.10915 8.99936C9.93259 8.97849 10.659 8.45491 10.9392 7.68032C10.9478 7.65649 10.9567 7.62999 10.9743 7.57697L11.0714 7.28571C11.1543 7.03708 11.1957 6.91276 11.2507 6.8072C11.47 6.38607 11.8757 6.09364 12.3446 6.01877C12.4621 6 12.5932 6 12.8553 6H16.1447C16.4068 6 16.5379 6 16.6554 6.01877C17.1243 6.09364 17.53 6.38607 17.7493 6.8072C17.8043 6.91276 17.8457 7.03708 17.9286 7.28571L18.0257 7.57697C18.0433 7.62992 18.0522 7.65651 18.0608 7.68032C18.341 8.45491 19.0674 8.97849 19.8909 8.99936C19.9162 9 19.9441 9 20 9" stroke="#1C274C" stroke-width="1.5"/>
</svg>
